<svg width="32" height="48" viewBox="0 0 32 48" fill="none" xmlns="http://www.w3.org/2000/svg">
<path d="M8.00161 47.9999C12.4167 47.9999 16 44.416 16 40V32H8.00161C3.58649 32 0.00320053 35.584 0.00320053 40C0.00320053 44.416 3.58649 47.9999 8.00161 47.9999Z" fill="#0ACF83"/>
<path d="M31.9969 24C31.9969 28.416 28.4136 31.9999 23.9984 31.9999C19.5833 31.9999 16 28.416 16 24C16 19.584 19.5833 16 23.9984 16C28.4136 16 31.9969 19.584 31.9969 24Z" fill="#1ABCFE"/>
<path d="M0.00320435 24C0.00320435 19.584 3.58649 16 8.00161 16H16V31.9999H8.00161C3.58649 31.9999 0.00320435 28.416 0.00320435 24Z" fill="#A259FF"/>
<path d="M16 0H23.9984C28.4136 0 31.9969 3.584 31.9969 7.99999C31.9969 12.416 28.4136 16 23.9984 16H16V0Z" fill="#FF7262"/>
<path d="M0.00320435 7.99999C0.00320435 3.584 3.58649 0 8.00161 0H16V16H8.00161C3.58649 16 0.00320435 12.416 0.00320435 7.99999Z" fill="#F24E1E"/>
</svg>
